<svg xmlns="http://www.w3.org/2000/svg" width="247.73" height="139.46" viewBox="0 0 247.73 139.46"><path d="M122.54,41,68.5.34l.4,21.34.3,15.9.24,12.47.2,10.2L69.78,68v.2l.16.11,43.64,32.87,6.11,4.6,2.29,1.72,1.23.92.77.59L122.7,41.35v-.19ZM88.25,38.81l-.17.09v-.19l-.16-.11.18-.09v.19h0Z" fill="#56ddee"/><polygon points="88.1 38.51 87.92 38.6 88.08 38.71 88.08 38.9 88.25 38.81 88.09 38.71 88.09 38.7 88.1 38.51 88.1 38.51"/><polygon points="88.1 38.51 87.92 38.6 88.08 38.71 88.08 38.9 88.25 38.81 88.09 38.71 88.09 38.7 88.1 38.51 88.1 38.51"/><polygon points="122.53 108.92 122.88 109.81 121.97 109.54 120.5 109.09 117.74 108.24 117.73 108.24 110.46 106.02 110.45 106.02 58.19 90.06 58 90.01 57.93 89.82 55.15 82.6 51.48 73.09 46.99 61.44 41.26 46.6 33.59 26.7 53.99 32.93 57.05 48.53 59.45 60.79 61.41 70.8 62.9 78.38 62.93 78.58 63.11 78.66 111.8 103.45 111.81 103.45 118.6 106.91 121.18 108.22 122.53 108.92" fill="#0bc1f2"/><polygon points="122.14 110.97 121.17 111.02 119.65 111.1 54.58 114.52 54.39 114.54 54.26 114.39 34.27 91.47 23.82 79.48 9.8 63.4 31.11 62.28 39.32 75.9 45.76 86.59 55.02 101.95 55.12 102.11 55.31 102.14 117.12 109.7 117.13 109.7 119.98 110.06 121.5 110.24 122.14 110.97" fill="#0099ce"/><polygon points="121.83 112.3 59.56 138.75 59.39 138.83 59.22 138.74 0 106.03 19.64 97.69 55.67 126.78 55.83 126.91 56.02 126.86 120.99 111.84 121.83 112.3" fill="#085595"/><path d="M125,41.78V42l-1.29,67.64.77-.58,1.23-.93,2.3-1.72,6.1-4.6,43.64-32.86.16-.11V68.6l.15-7.73.19-10.19.24-12.48.3-15.9L179.24,1l-54,40.69Zm34.61-2.44h0v-.19l.17.09-.16.1v.19l-.17-.09Z" fill="#56ddee"/><polygon points="125.2 109.54 124.85 110.44 125.77 110.16 127.24 109.71 129.99 108.87 130 108.86 137.27 106.65 137.28 106.65 189.55 90.68 189.74 90.63 189.81 90.44 192.59 83.23 196.26 73.71 200.75 62.07 206.47 47.23 214.15 27.32 193.74 33.55 190.68 49.16 188.29 61.41 186.33 71.42 184.84 79.01 184.8 79.2 184.63 79.28 135.94 104.08 135.93 104.08 129.13 107.54 126.56 108.85 125.2 109.54" fill="#0bc1f2"/><polygon points="125.6 111.59 126.56 111.64 128.09 111.72 193.16 115.15 193.34 115.17 193.47 115.02 213.46 92.09 223.91 80.11 237.94 64.03 216.63 62.91 208.42 76.53 201.97 87.22 192.71 102.57 192.62 102.74 192.42 102.76 130.62 110.32 130.61 110.33 127.76 110.68 126.23 110.86 125.6 111.59" fill="#0099ce"/><polygon points="125.91 112.93 188.17 139.38 188.34 139.46 188.51 139.36 247.74 106.66 228.1 98.31 192.06 127.41 191.91 127.53 191.72 127.48 126.75 112.47 125.91 112.93" fill="#085595"/><polygon points="88.08 38.71 88.08 38.9 88.25 38.81 88.09 38.71 88.08 38.71 88.08 38.71"/><polygon points="88.09 38.71 88.08 38.9 88.25 38.81 88.09 38.71 88.09 38.71"/><polygon points="88.1 38.51 87.92 38.6 88.08 38.71 88.09 38.7 88.1 38.51 88.1 38.51"/><polygon points="88.1 38.51 87.92 38.6 88.09 38.7 88.1 38.51 88.1 38.51"/><polygon points="146.35 0.69 101.2 0.69 81.09 31.11 166.45 31.11 146.35 0.69" fill="#0099ce"/><g opacity="0.51"><rect x="101.2" y="0.46" width="45.15" height="30.42" fill="#00b7e8"/></g><polygon points="123.77 109.25 80.96 31.11 166.59 31.11 123.77 109.25" fill="#086d95"/><g opacity="0.42"><polygon points="123.77 109.02 101.2 30.88 146.35 30.88 123.77 109.02" fill="#cbf1fe"/></g><g opacity="0.42"><polygon points="123.77 0 101.2 30.88 146.35 30.88 123.77 0" fill="#cbf1fe"/></g><g opacity="0.31"><polygon points="123.77 31.34 101.2 0.46 146.35 0.46 123.77 31.34" fill="#56ddee"/></g><circle cx="123.46" cy="31.6" r="10.63" fill="#fff"/></svg>